<svg width="26" height="22" fill="none" xmlns="http://www.w3.org/2000/svg"><path d="M14.125 11.006c0 3.49-.575 6.075-1.723 7.752-1.14 1.677-2.898 2.515-5.277 2.515-2.306 0-4.047-.865-5.223-2.597-1.167-1.732-1.75-4.289-1.75-7.67 0-3.527.57-6.125 1.709-7.793C3.001 1.536 4.755.697 7.125.697c2.306 0 4.046.875 5.222 2.625 1.185 1.75 1.778 4.311 1.778 7.684zm-9.776 0c0 2.452.21 4.21.63 5.277.428 1.057 1.143 1.586 2.146 1.586.984 0 1.695-.538 2.132-1.613.438-1.076.657-2.826.657-5.25 0-2.452-.224-4.211-.67-5.277-.438-1.076-1.144-1.614-2.12-1.614-.993 0-1.704.538-2.132 1.614-.429 1.066-.643 2.825-.643 5.277zM25.43 21h-4.225V9.434l.042-1.9.068-2.079c-.702.702-1.19 1.162-1.463 1.38l-2.297 1.847-2.037-2.543 6.44-5.127h3.472V21z" fill="#0AD9C6"/></svg>