<svg width="29" height="22" fill="none" xmlns="http://www.w3.org/2000/svg"><path d="M14.125 11.006c0 3.49-.575 6.075-1.723 7.752-1.14 1.677-2.898 2.515-5.277 2.515-2.306 0-4.047-.865-5.223-2.597-1.167-1.732-1.75-4.289-1.75-7.67 0-3.527.57-6.125 1.709-7.793C3.001 1.536 4.755.697 7.125.697c2.306 0 4.046.875 5.222 2.625 1.185 1.75 1.778 4.311 1.778 7.684zm-9.776 0c0 2.452.21 4.21.63 5.277.428 1.057 1.143 1.586 2.146 1.586.984 0 1.695-.538 2.132-1.613.438-1.076.657-2.826.657-5.25 0-2.452-.224-4.211-.67-5.277-.438-1.076-1.144-1.614-2.12-1.614-.993 0-1.704.538-2.132 1.614-.429 1.066-.643 2.825-.643 5.277zM28.957 21H14.985v-2.94l5.017-5.072c1.486-1.522 2.457-2.575 2.912-3.158.456-.592.784-1.14.985-1.64.2-.502.3-1.021.3-1.56 0-.801-.223-1.398-.67-1.79-.437-.392-1.025-.588-1.763-.588-.775 0-1.527.178-2.256.533-.729.356-1.49.861-2.283 1.518L14.93 3.582c.984-.839 1.8-1.431 2.447-1.777a8.777 8.777 0 012.12-.793c.765-.192 1.622-.287 2.57-.287 1.248 0 2.351.227 3.308.683.957.456 1.7 1.094 2.229 1.914.529.82.793 1.76.793 2.817 0 .92-.164 1.786-.492 2.597-.32.802-.82 1.627-1.504 2.475-.675.848-1.869 2.055-3.582 3.623l-2.57 2.42v.191h8.708V21z" fill="#0AD9C6"/></svg>