<svg width="29" height="22" fill="none" xmlns="http://www.w3.org/2000/svg"><path d="M14.125 11.006c0 3.49-.575 6.075-1.723 7.752-1.14 1.677-2.898 2.515-5.277 2.515-2.306 0-4.047-.865-5.223-2.597-1.167-1.732-1.75-4.289-1.75-7.67 0-3.527.57-6.125 1.709-7.793C3.001 1.536 4.755.697 7.125.697c2.306 0 4.046.875 5.222 2.625 1.185 1.75 1.778 4.311 1.778 7.684zm-9.776 0c0 2.452.21 4.21.63 5.277.428 1.057 1.143 1.586 2.146 1.586.984 0 1.695-.538 2.132-1.613.438-1.076.657-2.826.657-5.25 0-2.452-.224-4.211-.67-5.277-.438-1.076-1.144-1.614-2.12-1.614-.993 0-1.704.538-2.132 1.614-.429 1.066-.643 2.825-.643 5.277zm23.83-5.524c0 1.25-.38 2.311-1.136 3.186-.756.875-1.818 1.477-3.185 1.805v.082c1.613.2 2.834.692 3.664 1.476.83.775 1.244 1.823 1.244 3.145 0 1.923-.697 3.422-2.092 4.498-1.394 1.066-3.386 1.6-5.974 1.6-2.17 0-4.093-.36-5.77-1.08v-3.596c.775.392 1.627.71 2.557.957.93.246 1.85.369 2.761.369 1.395 0 2.425-.237 3.09-.711.666-.474.998-1.235.998-2.283 0-.94-.383-1.604-1.148-1.996-.766-.392-1.987-.588-3.664-.588h-1.518v-3.24h1.545c1.55 0 2.68-.201 3.39-.602.72-.41 1.08-1.108 1.08-2.092 0-1.513-.947-2.27-2.843-2.27-.656 0-1.326.11-2.01.329-.674.218-1.426.597-2.255 1.134l-1.956-2.912C16.78 1.381 18.954.725 21.48.725c2.069 0 3.7.419 4.894 1.257 1.203.839 1.805 2.006 1.805 3.5z" fill="#0AD9C6"/></svg>