<?xml version="1.0" encoding="UTF-8"?><!DOCTYPE svg PUBLIC "-//W3C//DTD SVG 1.1//EN" "http://www.w3.org/Graphics/SVG/1.1/DTD/svg11.dtd"><svg xmlns="http://www.w3.org/2000/svg" xmlns:xlink="http://www.w3.org/1999/xlink"><symbol id="close_icon" viewBox="0 0 50 52">
<rect width="50" height="52" fill="white"/>
<path d="M14 35.1977L36 13.9965M36 35.1977L14 13.9965" stroke="#141517" stroke-opacity="0.2" stroke-linecap="round" stroke-linejoin="round"/>
</symbol><symbol id="ellipse" viewBox="0 0 180 180">
<circle cx="90" cy="90" r="76.5" stroke="#0AD9C6" stroke-width="27"/>
</symbol><symbol id="logo" viewBox="0 0 68 21">
<path d="M13.3636 0V20.0455H10.0705V5.82273L8.97273 7.20682L6.825 9.975L6.72954 10.0705L6.58636 9.975L4.43864 7.20682L3.34091 5.775V20.0455H0V0H3.34091L6.72954 4.29545L10.0705 0H13.3636Z" fill="#0AD9C6"/>
<path d="M8.30444 10.0704L8.20898 9.97498L8.30444 10.0704Z" fill="#0AD9C6"/>
<path d="M8.44787 9.97498L8.35241 10.0704H8.30469L8.44787 9.97498Z" fill="#0AD9C6"/>
<path d="M38.2092 5.61453L29.0823 12.316L31.1955 15.194L40.3224 8.49252L38.2092 5.61453Z" fill="#0AD9C6"/>
<path d="M26.6674 3C22.8035 3 19.6243 6.13028 19.6243 10.0431C19.6243 13.9071 22.7546 17.0863 26.6674 17.0863C30.5313 17.0863 33.7105 13.956 33.7105 10.0431C33.7105 6.17919 30.5313 3 26.6674 3ZM26.6674 13.2712C24.8577 13.2712 23.4393 11.8039 23.4393 10.0431C23.4393 8.23344 24.9066 6.81503 26.6674 6.81503C28.4282 6.81503 29.8955 8.28235 29.8955 10.0431C29.8955 11.8039 28.4282 13.2712 26.6674 13.2712Z" fill="#0AD9C6"/>
<path d="M43.6396 3C39.7756 3 36.5964 6.13028 36.5964 10.0431C36.5964 13.9071 39.7267 17.0863 43.6396 17.0863C47.5035 17.0863 50.6827 13.956 50.6827 10.0431C50.6338 6.17919 47.5035 3 43.6396 3ZM43.6396 13.2712C41.8299 13.2712 40.4115 11.8039 40.4115 10.0431C40.4115 8.23344 41.8788 6.81503 43.6396 6.81503C45.4004 6.81503 46.8677 8.28235 46.8677 10.0431C46.8677 11.8039 45.4004 13.2712 43.6396 13.2712Z" fill="#0AD9C6"/>
<path d="M67.5977 0.238647V20.2841H64.2568V9.87956L61.4409 7.20683L59.3409 5.15456V20.2841H56V0.238647H59.2932H59.3409L63.2545 4.0091L64.2568 4.96365V0.238647H67.5977Z" fill="#0AD9C6"/>
<rect x="37" y="3" width="6" height="4" fill="#0AD9C6"/>
</symbol><symbol id="mail">
  <path d="M24.227 0H1.773C.768 0 0 .765 0 1.765v16.47C0 19.235.768 20 1.773 20h22.454C25.232 20 26 19.235 26 18.235V1.765C26 .765 25.232 0 24.227 0Zm0 17-4.668-4.647a.86.86 0 0 0-1.24 0 .85.85 0 0 0 0 1.235l4.667 4.647H3.014l4.668-4.647a.85.85 0 0 0 0-1.235.86.86 0 0 0-1.241 0L1.773 17V5.706l10.636 8a.955.955 0 0 0 .532.176.955.955 0 0 0 .532-.176l10.754-8V17Zm0-15.235V3.47l-11.286 8.352L1.773 3.471V1.765h22.454Z"/>
</symbol><symbol id="menu_arrow" viewBox="0 0 8 12">
    <path fill-rule="evenodd" clip-rule="evenodd" d="M0 1.4L4.6 6L0 10.6L1.4 12L7.4 6L1.4 0L0 1.4Z" fill="#2C2E3F" fill-opacity="0.5"/>
</symbol><symbol id="number_four" viewBox="0 0 30 22">
<path d="M14.1246 11.0059C14.1246 14.4967 13.5504 17.0807 12.402 18.7578C11.2627 20.4349 9.50356 21.2734 7.12465 21.2734C4.81866 21.2734 3.07777 20.4076 1.90199 18.6758C0.735326 16.944 0.151993 14.3874 0.151993 11.0059C0.151993 7.47852 0.721654 4.88086 1.86098 3.21289C3.0003 1.53581 4.75486 0.697266 7.12465 0.697266C9.43064 0.697266 11.1715 1.57227 12.3473 3.32227C13.5322 5.07227 14.1246 7.63346 14.1246 11.0059ZM4.34926 11.0059C4.34926 13.4577 4.55889 15.2168 4.97816 16.2832C5.40655 17.3405 6.12204 17.8691 7.12465 17.8691C8.10902 17.8691 8.81996 17.3314 9.25746 16.2559C9.69496 15.1803 9.91371 13.4303 9.91371 11.0059C9.91371 8.55404 9.6904 6.79492 9.24379 5.72852C8.80629 4.65299 8.09991 4.11523 7.12465 4.11523C6.13116 4.11523 5.42022 4.65299 4.99184 5.72852C4.56345 6.79492 4.34926 8.55404 4.34926 11.0059ZM29.4086 16.8574H27.0023V21H22.8734V16.8574H14.3422V13.918L23.1058 1.01172H27.0023V13.5762H29.4086V16.8574ZM22.8734 13.5762V10.1855C22.8734 9.62044 22.8962 8.80013 22.9418 7.72461C22.9873 6.64909 23.0238 6.02474 23.0511 5.85156H22.9418C22.6045 6.59896 22.1989 7.32812 21.725 8.03906L18.0609 13.5762H22.8734Z" fill="#0AD9C6"/>
</symbol><symbol id="number_one" viewBox="0 0 26 22">
<path d="M14.1246 11.0059C14.1246 14.4967 13.5504 17.0807 12.402 18.7578C11.2627 20.4349 9.50356 21.2734 7.12465 21.2734C4.81866 21.2734 3.07777 20.4076 1.90199 18.6758C0.735326 16.944 0.151993 14.3874 0.151993 11.0059C0.151993 7.47852 0.721654 4.88086 1.86098 3.21289C3.0003 1.53581 4.75486 0.697266 7.12465 0.697266C9.43064 0.697266 11.1715 1.57227 12.3473 3.32227C13.5322 5.07227 14.1246 7.63346 14.1246 11.0059ZM4.34926 11.0059C4.34926 13.4577 4.55889 15.2168 4.97816 16.2832C5.40655 17.3405 6.12204 17.8691 7.12465 17.8691C8.10902 17.8691 8.81996 17.3314 9.25746 16.2559C9.69496 15.1803 9.91371 13.4303 9.91371 11.0059C9.91371 8.55404 9.6904 6.79492 9.24379 5.72852C8.80629 4.65299 8.09991 4.11523 7.12465 4.11523C6.13116 4.11523 5.42022 4.65299 4.99184 5.72852C4.56345 6.79492 4.34926 8.55404 4.34926 11.0059ZM25.4301 21H21.2054V9.43359L21.2465 7.5332L21.3148 5.45508C20.613 6.1569 20.1254 6.61719 19.8519 6.83594L17.5551 8.68164L15.5179 6.13867L21.9574 1.01172H25.4301V21Z" fill="#0AD9C6"/>
</symbol><symbol id="number_three" viewBox="0 0 29 22">
<path d="M14.1246 11.0059C14.1246 14.4967 13.5504 17.0807 12.402 18.7578C11.2627 20.4349 9.50356 21.2734 7.12465 21.2734C4.81866 21.2734 3.07777 20.4076 1.90199 18.6758C0.735326 16.944 0.151993 14.3874 0.151993 11.0059C0.151993 7.47852 0.721654 4.88086 1.86098 3.21289C3.0003 1.53581 4.75486 0.697266 7.12465 0.697266C9.43064 0.697266 11.1715 1.57227 12.3473 3.32227C13.5322 5.07227 14.1246 7.63346 14.1246 11.0059ZM4.34926 11.0059C4.34926 13.4577 4.55889 15.2168 4.97816 16.2832C5.40655 17.3405 6.12204 17.8691 7.12465 17.8691C8.10902 17.8691 8.81996 17.3314 9.25746 16.2559C9.69496 15.1803 9.91371 13.4303 9.91371 11.0059C9.91371 8.55404 9.6904 6.79492 9.24379 5.72852C8.80629 4.65299 8.09991 4.11523 7.12465 4.11523C6.13116 4.11523 5.42022 4.65299 4.99184 5.72852C4.56345 6.79492 4.34926 8.55404 4.34926 11.0059ZM28.1781 5.48242C28.1781 6.73112 27.7998 7.79297 27.0433 8.66797C26.2868 9.54297 25.225 10.1445 23.8578 10.4727V10.5547C25.4711 10.7552 26.6924 11.2474 27.5219 12.0312C28.3513 12.806 28.766 13.8542 28.766 15.1758C28.766 17.099 28.0687 18.5983 26.6742 19.6738C25.2797 20.7402 23.2881 21.2734 20.6996 21.2734C18.5303 21.2734 16.6071 20.9134 14.9301 20.1934V16.5977C15.7048 16.9896 16.557 17.3086 17.4867 17.5547C18.4164 17.8008 19.337 17.9238 20.2484 17.9238C21.6429 17.9238 22.6729 17.6868 23.3383 17.2129C24.0036 16.7389 24.3363 15.9779 24.3363 14.9297C24.3363 13.9909 23.9535 13.3255 23.1879 12.9336C22.4222 12.5417 21.2009 12.3457 19.5238 12.3457H18.0062V9.10547H19.5511C21.1006 9.10547 22.2308 8.90495 22.9418 8.50391C23.6618 8.09375 24.0219 7.39648 24.0219 6.41211C24.0219 4.89909 23.0739 4.14258 21.1781 4.14258C20.5219 4.14258 19.8519 4.25195 19.1683 4.4707C18.4939 4.68945 17.7419 5.06771 16.9125 5.60547L14.9574 2.69336C16.7803 1.38086 18.9541 0.724609 21.4789 0.724609C23.5479 0.724609 25.1794 1.14388 26.3734 1.98242C27.5765 2.82096 28.1781 3.98763 28.1781 5.48242Z" fill="#0AD9C6"/>
</symbol><symbol id="number_two" viewBox="0 0 29 22">
<path d="M14.1246 11.0059C14.1246 14.4967 13.5504 17.0807 12.402 18.7578C11.2627 20.4349 9.50356 21.2734 7.12465 21.2734C4.81866 21.2734 3.07777 20.4076 1.90199 18.6758C0.735326 16.944 0.151993 14.3874 0.151993 11.0059C0.151993 7.47852 0.721654 4.88086 1.86098 3.21289C3.0003 1.53581 4.75486 0.697266 7.12465 0.697266C9.43064 0.697266 11.1715 1.57227 12.3473 3.32227C13.5322 5.07227 14.1246 7.63346 14.1246 11.0059ZM4.34926 11.0059C4.34926 13.4577 4.55889 15.2168 4.97816 16.2832C5.40655 17.3405 6.12204 17.8691 7.12465 17.8691C8.10902 17.8691 8.81996 17.3314 9.25746 16.2559C9.69496 15.1803 9.91371 13.4303 9.91371 11.0059C9.91371 8.55404 9.6904 6.79492 9.24379 5.72852C8.80629 4.65299 8.09991 4.11523 7.12465 4.11523C6.13116 4.11523 5.42022 4.65299 4.99184 5.72852C4.56345 6.79492 4.34926 8.55404 4.34926 11.0059ZM28.9574 21H14.9847V18.0605L20.0023 12.9883C21.488 11.4661 22.4587 10.4134 22.9144 9.83008C23.3702 9.23763 23.6983 8.69076 23.8988 8.18945C24.0993 7.68815 24.1996 7.16862 24.1996 6.63086C24.1996 5.82878 23.9763 5.23177 23.5297 4.83984C23.0922 4.44792 22.5043 4.25195 21.766 4.25195C20.9913 4.25195 20.2393 4.42969 19.5101 4.78516C18.781 5.14062 18.0199 5.64648 17.2269 6.30273L14.9301 3.58203C15.9144 2.74349 16.7302 2.15104 17.3773 1.80469C18.0245 1.45833 18.7308 1.19401 19.4965 1.01172C20.2621 0.820312 21.1189 0.724609 22.0668 0.724609C23.3155 0.724609 24.4183 0.952474 25.3754 1.4082C26.3324 1.86393 27.0752 2.50195 27.6039 3.32227C28.1325 4.14258 28.3969 5.08138 28.3969 6.13867C28.3969 7.05924 28.2328 7.92513 27.9047 8.73633C27.5857 9.53841 27.0844 10.3633 26.4008 11.2109C25.7263 12.0586 24.5323 13.2663 22.8187 14.834L20.2484 17.2539V17.4453H28.9574V21Z" fill="#0AD9C6"/>
</symbol><symbol id="open_icon" viewBox="0 0 50 50">
<rect width="50" height="50" fill="#0AD9C6"/>
<path fill-rule="evenodd" clip-rule="evenodd" d="M13.75 32H36.25V31H13.75V32ZM13.75 25.75H36.25V24.75H13.75V25.75ZM13.75 18.5V19.5H36.25V18.5H13.75Z" fill="black"/>
</symbol><symbol id="phone">
  <path d="M3.456 6.742c-.084-1.198.181-2.378.885-3.327.61-.861 1.404-1.331 2.361-1.606.807-.239 1.335.054 1.568.95.332 1.34.806 2.681.978 4.092.055.622-.347 1.5-.782 1.952-1.09 1.074-.864 1.855-.036 3.479.257.524.664 1.43 1.458 2.628.828 1.207 1.266 1.855 2.329 1.305 1.18-.594 2.041-.212 2.932.747.604.693 1.268 1.288 1.872 1.98.873 1.03.834 1.74.151 2.467-1.229 1.34-3.258 1.782-4.768.885-.834-.488-1.664-1.128-2.325-1.873-2.914-3.32-5.016-7.182-6.282-11.54a10.989 10.989 0 0 1-.34-2.139Z" stroke-width="2" stroke-miterlimit="10"/>
</symbol><symbol id="play_button" viewBox="0 0 65 65">
  <path fill-rule="evenodd" clip-rule="evenodd" d="M32.5 65C50.4493 65 65 50.4493 65 32.5C65 14.5507 50.4493 0 32.5 0C14.5507 0 0 14.5507 0 32.5C0 50.4493 14.5507 65 32.5 65Z"/>
  <path fill-rule="evenodd" clip-rule="evenodd" d="M28.6001 23.3999L41.6001 32.4999L28.6001 41.5999V23.3999Z" fill="#070707"/>
</symbol><symbol id="rectangle" viewBox="0 0 47 47">
<rect x="4" y="4" width="39" height="39" stroke="#0AD9C6" stroke-width="8"/>
</symbol></svg>