<svg width="29" height="22" viewBox="0 0 29 22" fill="none" xmlns="http://www.w3.org/2000/svg">
<path d="M14.1246 11.0059C14.1246 14.4967 13.5504 17.0807 12.402 18.7578C11.2627 20.4349 9.50356 21.2734 7.12465 21.2734C4.81866 21.2734 3.07777 20.4076 1.90199 18.6758C0.735326 16.944 0.151993 14.3874 0.151993 11.0059C0.151993 7.47852 0.721654 4.88086 1.86098 3.21289C3.0003 1.53581 4.75486 0.697266 7.12465 0.697266C9.43064 0.697266 11.1715 1.57227 12.3473 3.32227C13.5322 5.07227 14.1246 7.63346 14.1246 11.0059ZM4.34926 11.0059C4.34926 13.4577 4.55889 15.2168 4.97816 16.2832C5.40655 17.3405 6.12204 17.8691 7.12465 17.8691C8.10902 17.8691 8.81996 17.3314 9.25746 16.2559C9.69496 15.1803 9.91371 13.4303 9.91371 11.0059C9.91371 8.55404 9.6904 6.79492 9.24379 5.72852C8.80629 4.65299 8.09991 4.11523 7.12465 4.11523C6.13116 4.11523 5.42022 4.65299 4.99184 5.72852C4.56345 6.79492 4.34926 8.55404 4.34926 11.0059ZM28.9574 21H14.9847V18.0605L20.0023 12.9883C21.488 11.4661 22.4587 10.4134 22.9144 9.83008C23.3702 9.23763 23.6983 8.69076 23.8988 8.18945C24.0993 7.68815 24.1996 7.16862 24.1996 6.63086C24.1996 5.82878 23.9763 5.23177 23.5297 4.83984C23.0922 4.44792 22.5043 4.25195 21.766 4.25195C20.9913 4.25195 20.2393 4.42969 19.5101 4.78516C18.781 5.14062 18.0199 5.64648 17.2269 6.30273L14.9301 3.58203C15.9144 2.74349 16.7302 2.15104 17.3773 1.80469C18.0245 1.45833 18.7308 1.19401 19.4965 1.01172C20.2621 0.820312 21.1189 0.724609 22.0668 0.724609C23.3155 0.724609 24.4183 0.952474 25.3754 1.4082C26.3324 1.86393 27.0752 2.50195 27.6039 3.32227C28.1325 4.14258 28.3969 5.08138 28.3969 6.13867C28.3969 7.05924 28.2328 7.92513 27.9047 8.73633C27.5857 9.53841 27.0844 10.3633 26.4008 11.2109C25.7263 12.0586 24.5323 13.2663 22.8187 14.834L20.2484 17.2539V17.4453H28.9574V21Z" fill="#0AD9C6"/>
</svg>
