<svg width="29" height="22" viewBox="0 0 29 22" fill="none" xmlns="http://www.w3.org/2000/svg">
<path d="M14.1246 11.0059C14.1246 14.4967 13.5504 17.0807 12.402 18.7578C11.2627 20.4349 9.50356 21.2734 7.12465 21.2734C4.81866 21.2734 3.07777 20.4076 1.90199 18.6758C0.735326 16.944 0.151993 14.3874 0.151993 11.0059C0.151993 7.47852 0.721654 4.88086 1.86098 3.21289C3.0003 1.53581 4.75486 0.697266 7.12465 0.697266C9.43064 0.697266 11.1715 1.57227 12.3473 3.32227C13.5322 5.07227 14.1246 7.63346 14.1246 11.0059ZM4.34926 11.0059C4.34926 13.4577 4.55889 15.2168 4.97816 16.2832C5.40655 17.3405 6.12204 17.8691 7.12465 17.8691C8.10902 17.8691 8.81996 17.3314 9.25746 16.2559C9.69496 15.1803 9.91371 13.4303 9.91371 11.0059C9.91371 8.55404 9.6904 6.79492 9.24379 5.72852C8.80629 4.65299 8.09991 4.11523 7.12465 4.11523C6.13116 4.11523 5.42022 4.65299 4.99184 5.72852C4.56345 6.79492 4.34926 8.55404 4.34926 11.0059ZM28.1781 5.48242C28.1781 6.73112 27.7998 7.79297 27.0433 8.66797C26.2868 9.54297 25.225 10.1445 23.8578 10.4727V10.5547C25.4711 10.7552 26.6924 11.2474 27.5219 12.0312C28.3513 12.806 28.766 13.8542 28.766 15.1758C28.766 17.099 28.0687 18.5983 26.6742 19.6738C25.2797 20.7402 23.2881 21.2734 20.6996 21.2734C18.5303 21.2734 16.6071 20.9134 14.9301 20.1934V16.5977C15.7048 16.9896 16.557 17.3086 17.4867 17.5547C18.4164 17.8008 19.337 17.9238 20.2484 17.9238C21.6429 17.9238 22.6729 17.6868 23.3383 17.2129C24.0036 16.7389 24.3363 15.9779 24.3363 14.9297C24.3363 13.9909 23.9535 13.3255 23.1879 12.9336C22.4222 12.5417 21.2009 12.3457 19.5238 12.3457H18.0062V9.10547H19.5511C21.1006 9.10547 22.2308 8.90495 22.9418 8.50391C23.6618 8.09375 24.0219 7.39648 24.0219 6.41211C24.0219 4.89909 23.0739 4.14258 21.1781 4.14258C20.5219 4.14258 19.8519 4.25195 19.1683 4.4707C18.4939 4.68945 17.7419 5.06771 16.9125 5.60547L14.9574 2.69336C16.7803 1.38086 18.9541 0.724609 21.4789 0.724609C23.5479 0.724609 25.1794 1.14388 26.3734 1.98242C27.5765 2.82096 28.1781 3.98763 28.1781 5.48242Z" fill="#0AD9C6"/>
</svg>
