<svg width="26" height="22" viewBox="0 0 26 22" fill="none" xmlns="http://www.w3.org/2000/svg">
<path d="M14.1246 11.0059C14.1246 14.4967 13.5504 17.0807 12.402 18.7578C11.2627 20.4349 9.50356 21.2734 7.12465 21.2734C4.81866 21.2734 3.07777 20.4076 1.90199 18.6758C0.735326 16.944 0.151993 14.3874 0.151993 11.0059C0.151993 7.47852 0.721654 4.88086 1.86098 3.21289C3.0003 1.53581 4.75486 0.697266 7.12465 0.697266C9.43064 0.697266 11.1715 1.57227 12.3473 3.32227C13.5322 5.07227 14.1246 7.63346 14.1246 11.0059ZM4.34926 11.0059C4.34926 13.4577 4.55889 15.2168 4.97816 16.2832C5.40655 17.3405 6.12204 17.8691 7.12465 17.8691C8.10902 17.8691 8.81996 17.3314 9.25746 16.2559C9.69496 15.1803 9.91371 13.4303 9.91371 11.0059C9.91371 8.55404 9.6904 6.79492 9.24379 5.72852C8.80629 4.65299 8.09991 4.11523 7.12465 4.11523C6.13116 4.11523 5.42022 4.65299 4.99184 5.72852C4.56345 6.79492 4.34926 8.55404 4.34926 11.0059ZM25.4301 21H21.2054V9.43359L21.2465 7.5332L21.3148 5.45508C20.613 6.1569 20.1254 6.61719 19.8519 6.83594L17.5551 8.68164L15.5179 6.13867L21.9574 1.01172H25.4301V21Z" fill="#0AD9C6"/>
</svg>
